ModelForces
version=1
nRows=4
nColumns=155
inDegrees=no

This file contains the forces exerted on a model during a simulation.

A force is a generalized force, meaning that it can be either a force (N) or a torque (Nm).

Units are S.I. units (second, meters, Newtons, ...)
Angles are in degrees.

endheader
time	glut_med1_r	glut_med2_r	glut_med3_r	glut_min1_r	glut_min2_r	glut_min3_r	semimem_r	semiten_r	bifemlh_r	bifemsh_r	sar_r	add_long_r	add_brev_r	add_mag1_r	add_mag2_r	add_mag3_r	tfl_r	pect_r	grac_r	glut_max1_r	glut_max2_r	glut_max3_r	iliacus_r	psoas_r	quad_fem_r	gem_r	peri_r	rect_fem_r	vas_med_r	vas_int_r	vas_lat_r	med_gas_r	lat_gas_r	soleus_r	tib_post_r	flex_dig_r	flex_hal_r	tib_ant_r	per_brev_r	per_long_r	per_tert_r	ext_dig_r	ext_hal_r	glut_med1_l	glut_med2_l	glut_med3_l	glut_min1_l	glut_min2_l	glut_min3_l	semimem_l	semiten_l	bifemlh_l	bifemsh_l	sar_l	add_long_l	add_brev_l	add_mag1_l	add_mag2_l	add_mag3_l	tfl_l	pect_l	grac_l	glut_max1_l	glut_max2_l	glut_max3_l	iliacus_l	psoas_l	quad_fem_l	gem_l	peri_l	rect_fem_l	vas_med_l	vas_int_l	vas_lat_l	med_gas_l	lat_gas_l	soleus_l	tib_post_l	flex_dig_l	flex_hal_l	tib_ant_l	per_brev_l	per_long_l	per_tert_l	ext_dig_l	ext_hal_l	ercspn_r	ercspn_l	intobl_r	intobl_l	extobl_r	extobl_l	femur_lat_meniscii_r.femur_lat_r.force.X	femur_lat_meniscii_r.femur_lat_r.force.Y	femur_lat_meniscii_r.femur_lat_r.force.Z	femur_lat_meniscii_r.femur_lat_r.torque.X	femur_lat_meniscii_r.femur_lat_r.torque.Y	femur_lat_meniscii_r.femur_lat_r.torque.Z	femur_lat_meniscii_r.meniscus_lat_r.force.X	femur_lat_meniscii_r.meniscus_lat_r.force.Y	femur_lat_meniscii_r.meniscus_lat_r.force.Z	femur_lat_meniscii_r.meniscus_lat_r.torque.X	femur_lat_meniscii_r.meniscus_lat_r.torque.Y	femur_lat_meniscii_r.meniscus_lat_r.torque.Z	femur_med_meniscii_r.femur_med_r.force.X	femur_med_meniscii_r.femur_med_r.force.Y	femur_med_meniscii_r.femur_med_r.force.Z	femur_med_meniscii_r.femur_med_r.torque.X	femur_med_meniscii_r.femur_med_r.torque.Y	femur_med_meniscii_r.femur_med_r.torque.Z	femur_med_meniscii_r.meniscus_med_r.force.X	femur_med_meniscii_r.meniscus_med_r.force.Y	femur_med_meniscii_r.meniscus_med_r.force.Z	femur_med_meniscii_r.meniscus_med_r.torque.X	femur_med_meniscii_r.meniscus_med_r.torque.Y	femur_med_meniscii_r.meniscus_med_r.torque.Z	femur_med_tibia_r.tibia_upper_r.force.X	femur_med_tibia_r.tibia_upper_r.force.Y	femur_med_tibia_r.tibia_upper_r.force.Z	femur_med_tibia_r.tibia_upper_r.torque.X	femur_med_tibia_r.tibia_upper_r.torque.Y	femur_med_tibia_r.tibia_upper_r.torque.Z	femur_med_tibia_r.femur_med_r.force.X	femur_med_tibia_r.femur_med_r.force.Y	femur_med_tibia_r.femur_med_r.force.Z	femur_med_tibia_r.femur_med_r.torque.X	femur_med_tibia_r.femur_med_r.torque.Y	femur_med_tibia_r.femur_med_r.torque.Z	femur_lat_tibia_r.tibia_upper_r.force.X	femur_lat_tibia_r.tibia_upper_r.force.Y	femur_lat_tibia_r.tibia_upper_r.force.Z	femur_lat_tibia_r.tibia_upper_r.torque.X	femur_lat_tibia_r.tibia_upper_r.torque.Y	femur_lat_tibia_r.tibia_upper_r.torque.Z	femur_lat_tibia_r.femur_lat_r.force.X	femur_lat_tibia_r.femur_lat_r.force.Y	femur_lat_tibia_r.femur_lat_r.force.Z	femur_lat_tibia_r.femur_lat_r.torque.X	femur_lat_tibia_r.femur_lat_r.torque.Y	femur_lat_tibia_r.femur_lat_r.torque.Z	aACL_R	pACL_R	aPCL_R	pPCL_R	aMCL_R	mMCL_R	pMCL_R	aLCL_R	mLCL_R	pLCL_R	aPCL_L	pPCL_L	aMCL_L	aLCL_L
      0.20909236	      9.72729286	      7.15857354	      7.68499469	      3.32636904	      3.90357113	      4.11260379	      0.00000000	    164.10455239	    180.36360189	    336.38277616	    122.58610882	      7.11184955	      5.16986772	      3.68228536	      3.11280477	      5.17984277	      3.46213949	      2.80482495	     92.82859805	      4.62001715	      7.02558137	      5.26636563	     25.36693593	     16.04530640	      4.55938477	      3.29732592	      5.57943872	    111.39692999	     40.66755932	     74.48611604	     55.29901513	      0.00000000	      0.00000000	      0.00000000	      0.00000000	      0.00000000	      0.00000000	     35.07780927	      1.62395767	      3.73959784	     21.85791217	     47.90661930	     11.89873403	      9.72729286	      7.15857354	      7.68499469	      3.32636904	      3.90357113	      4.11260379	     10.57907934	      5.25056751	     10.27669656	      9.07343956	      1.89925449	      7.11184955	      5.16986772	      3.68228536	      3.11280477	      5.17984277	      4.83541225	      2.80482495	      1.95557969	      4.62001715	      7.02558137	      5.26636563	     25.36693593	     16.04530640	      4.55938477	      3.29732592	      5.57943872	     14.22283276	      0.00000000	      0.00000000	      0.00000000	     19.35305482	      9.04146936	     43.04819111	     47.30484664	      4.19056949	      3.65047607	     11.14394553	      5.89726491	     15.84924871	      2.48196652	      7.87730566	      2.52288679	     31.29964401	     31.29964401	     11.48857705	     11.48857705	     29.04307713	     29.04307713	     80.60370034	     64.02018725	     11.42507433	     -6.06124828	      1.92809494	     31.79277243	    -80.60370034	    -64.02018725	    -11.42507433	      1.73065976	     -2.45896979	      1.73420122	      0.04702381	      0.00164205	     -0.03003393	      0.01196323	     -0.00073586	      0.01868983	     -0.04702381	     -0.00164205	      0.03003393	     -0.00011358	      0.00142216	     -0.00009943	   -881.14226717	   -383.55820122	    304.01933048	     -8.21217003	     21.16683109	      3.09493264	    881.14226717	    383.55820122	   -304.01933048	    129.16578286	    -15.32960385	    354.83052174	   -326.17312737	   -156.27120030	    -96.67856180	      5.11623626	    -11.61744496	      1.52966852	    326.17312737	    156.27120030	     96.67856180	    -42.81744367	      8.10011646	    131.35168215	      0.00000000	      0.00000000	    978.99761392	    635.95094389	     32.95689865	     20.16683407	      0.00000000	      0.00000000	      0.00000000	      0.00000000	      0.00000000	      0.00000000	      0.00000001	      0.00000000
      0.20932884	      9.72054607	      7.15396331	      7.67998421	      3.32431696	      3.90133552	      4.10975129	      0.00000000	    163.94624612	    180.05906964	    334.97371235	    122.43155714	      7.10721540	      5.16670800	      3.67993146	      3.11076369	      5.17614150	      3.46715596	      2.80308269	     92.68853290	      4.61703558	      7.02103541	      5.26290002	     25.35849850	     16.03570949	      4.55651008	      3.29594251	      5.57575434	    114.17681074	     40.38694478	     74.12204585	     55.10168659	      0.00000000	      0.00000000	      0.00000000	      0.00000000	      0.00000000	      0.00000000	     35.08036420	      1.60514388	      3.71508923	     21.80447332	     47.81149587	     11.87061276	      9.72054607	      7.15396331	      7.67998421	      3.32431696	      3.90133552	      4.10975129	     10.58327482	      5.24694731	     10.26885372	      9.06771340	      1.89808829	      7.10721540	      5.16670800	      3.67993146	      3.11076369	      5.17614150	      4.83312165	      2.80308269	      1.95435768	      4.61703558	      7.02103541	      5.26290002	     25.35849850	     16.03570949	      4.55651008	      3.29594251	      5.57575434	     14.21192679	      0.00000000	      0.00000000	      0.00000000	     19.34175193	      9.03586203	     43.01450902	     47.29007985	      4.18347124	      3.64413996	     11.13566874	      5.89255980	     15.83956354	      2.48048569	      7.87398661	      2.52190983	     31.28029079	     31.28029079	     11.48086846	     11.48086846	     29.03612719	     29.03612719	     84.42504286	     65.00993051	     10.09614343	     -5.54821203	      2.00316303	     33.32326833	    -84.42504286	    -65.00993051	    -10.09614343	      1.74421702	     -2.50889847	      1.74262289	      0.04204158	     -0.00056467	     -0.02665474	      0.01059631	     -0.00065606	      0.01672640	     -0.04204158	      0.00056467	      0.02665474	     -0.00008427	      0.00126468	     -0.00015903	   -868.60152346	   -373.23896535	    302.46265050	     -8.05083314	     20.96733885	      2.94005557	    868.60152346	    373.23896535	   -302.46265050	    128.37658999	    -15.13482275	    349.80451574	   -323.18205355	   -151.43801763	    -93.97732257	      4.95579245	    -11.44163119	      1.40894161	    323.18205355	    151.43801763	     93.97732257	    -41.60851913	      8.00297177	    130.17862550	      0.00000000	      0.00000000	    980.22289390	    633.97442482	     31.00727938	     17.95533004	      0.00000000	      0.00000000	      0.00000000	      0.00000000	      0.00000000	      0.00000000	      0.00000001	      0.00000000
      0.20996417	      9.70252407	      7.14164902	      7.66660100	      3.31883545	      3.89536397	      4.10213228	      0.00000000	    163.78301402	    179.49359022	    332.91781048	    122.20321829	      7.09483737	      5.15826770	      3.67364319	      3.10531198	      5.16625546	      3.47331194	      2.79842883	     92.49948023	      4.60907173	      7.00889303	      5.25364336	     25.33596265	     16.01007760	      4.54883140	      3.29224769	      5.56587693	    122.27260247	     40.14096721	     73.89804666	     55.16175081	      0.00000000	      0.00000000	      0.00000000	      0.00000000	      0.00000000	      0.00000000	     35.07530512	      1.55764332	      3.65080726	     21.66092282	     47.55862958	     11.79588182	      9.70252407	      7.14164902	      7.66660100	      3.31883545	      3.89536397	      4.10213228	     10.59370554	      5.23727778	     10.24789680	      9.05241810	      1.89497311	      7.09483737	      5.15826770	      3.67364319	      3.10531198	      5.16625546	      4.82700338	      2.79842883	      1.95109349	      4.60907173	      7.00889303	      5.25364336	     25.33596265	     16.01007760	      4.54883140	      3.29224769	      5.56587693	     14.18279337	      0.00000000	      0.00000000	      0.00000000	     19.31139682	      9.02081385	     42.92443114	     47.25062083	      4.16448350	      3.62721938	     11.11355782	      5.87998850	     15.81367283	      2.47653055	      7.86504889	      2.51926798	     31.22859470	     31.22859470	     11.46027876	     11.46027876	     29.01756451	     29.01756451	     95.12991072	     67.70416022	      7.45214259	     -4.54696812	      2.22450828	     37.61242521	    -95.12991072	    -67.70416022	     -7.45214259	      1.79313054	     -2.68928591	      1.76412981	      0.02740147	     -0.00303513	     -0.01863667	      0.00738091	     -0.00043772	      0.01092300	     -0.02740147	      0.00303513	      0.01863667	     -0.00003607	      0.00086946	     -0.00019421	   -854.11174032	   -355.51572276	    302.03726300	     -7.77811792	     20.78329723	      2.65228977	    854.11174032	    355.51572276	   -302.03726300	    127.92753259	    -14.91550743	    344.01724415	   -318.64210304	   -145.05256342	    -88.58499620	      4.70852742	    -11.12765507	      1.29824919	    318.64210304	    145.05256342	     88.58499620	    -39.26075639	      7.83936102	    128.37123073	      0.00000000	      0.00000000	    982.91562817	    628.65778623	     25.39015010	     11.82190005	      0.00000000	      0.00000000	      0.00000000	      0.00000000	      0.00000000	      0.00000000	      0.00000001	      0.00000000
      0.21053403	      9.68648627	      7.13069116	      7.65469216	      3.31395744	      3.89005013	      4.09535278	      0.00000000	    163.90077516	    179.27448055	    332.54241424	    122.14606570	      7.08382297	      5.15075653	      3.66804663	      3.10046095	      5.15745879	      3.47026608	      2.79428739	     92.49294290	      4.60198526	      6.99808840	      5.24540665	     25.31591054	     15.98727175	      4.54199835	      3.28896036	      5.55704350	    129.80205110	     40.32729568	     74.23693763	     55.49824252	      0.00000000	      0.00000000	      0.00000000	      0.00000000	      0.00000000	      0.00000000	     35.06152497	      1.51720414	      3.59358515	     21.52549667	     47.33204245	     11.73000514	      9.68648627	      7.13069116	      7.65469216	      3.31395744	      3.89005013	      4.09535278	     10.60205767	      5.22867377	     10.22923844	      9.03880728	      1.89220088	      7.08382297	      5.15075653	      3.66804663	      3.10046095	      5.15745879	      4.82155917	      2.79428739	      1.94818874	      4.60198526	      6.99808840	      5.24540665	     25.31591054	     15.98727175	      4.54199835	      3.28896036	      5.55704350	     14.15686570	      0.00000000	      0.00000000	      0.00000000	     19.28418459	      9.00733701	     42.84414091	     47.21548897	      4.14755526	      3.61216922	     11.09387886	      5.86879754	     15.79060848	      2.47301140	      7.85700553	      2.51687723	     31.18259032	     31.18259032	     11.44195771	     11.44195771	     29.00104791	     29.00104791	    102.01991886	     69.82790280	      6.62641601	     -4.26568486	      2.37278585	     40.36264201	   -102.01991886	    -69.82790280	     -6.62641601	      1.84363181	     -2.83568432	      1.80508252	      0.02102035	     -0.00241452	     -0.01425033	      0.00564191	     -0.00033457	      0.00837880	     -0.02102035	      0.00241452	      0.01425033	     -0.00002449	      0.00066500	     -0.00014865	   -859.09838296	   -347.05448994	    304.95989600	     -7.65715162	     20.94116669	      2.45184333	    859.09838296	    347.05448994	   -304.95989600	    128.97405581	    -15.00194267	    346.06739465	   -319.38532218	   -142.50750680	    -87.71772748	      4.61907704	    -11.12088433	      1.25821112	    319.38532218	    142.50750680	     87.71772748	    -38.84395347	      7.84550204	    128.67777873	      0.00000000	      0.00000000	    985.44140786	    625.81435987	     21.52311329	      7.71375761	      0.00000000	      0.00000000	      0.00000000	      0.00000000	      0.00000000	      0.00000000	      0.00000001	      0.00000000
